<?xml version="1.0" encoding="UTF-8" standalone="no"?>
<!DOCTYPE svg PUBLIC "-//W3C//DTD SVG 1.1//EN" "http://www.w3.org/Graphics/SVG/1.1/DTD/svg11.dtd">
<svg width="100%" height="100%" viewBox="0 0 50 24" version="1.1" xmlns="http://www.w3.org/2000/svg" xmlns:xlink="http://www.w3.org/1999/xlink" xml:space="preserve" xmlns:serif="http://www.serif.com/" style="fill-rule:evenodd;clip-rule:evenodd;stroke-linejoin:round;stroke-miterlimit:2;">
    <g transform="matrix(0.884185,0,0,0.884185,-623.335,-630.526)">
        <g transform="matrix(1.30867,0,0,1.30867,-213.071,-224.134)">
            <circle cx="711.888" cy="720.938" r="4.716" style="fill:white;"/>
        </g>
        <g transform="matrix(1.30867,0,0,1.30867,-198.371,-224.134)">
            <circle cx="711.888" cy="720.938" r="4.716" style="fill:white;"/>
        </g>
        <g transform="matrix(1.30867,0,0,1.30867,-213.071,-224.134)">
            <circle cx="734.354" cy="720.938" r="4.716" style="fill:white;"/>
        </g>
        <path d="M754.13,734.038C754.13,737.444 751.364,740.209 747.958,740.209C744.551,740.209 741.786,737.444 741.786,734.038C741.786,730.631 744.551,727.866 747.958,727.866C751.364,727.866 754.13,730.631 754.13,734.038ZM749.218,732.777L749.218,730.599L746.697,730.599L746.697,732.777L744.519,732.777L744.519,735.298L746.697,735.298L746.697,737.476L749.218,737.476L749.218,735.298L751.397,735.298L751.397,732.777L749.218,732.777Z" style="fill:rgb(34,197,94);"/>
        <path d="M739.429,734.038C739.429,737.444 736.664,740.209 733.258,740.209C729.851,740.209 727.086,737.444 727.086,734.038C727.086,730.631 729.851,727.866 733.258,727.866C736.664,727.866 739.429,730.631 739.429,734.038ZM734.518,732.777L734.518,730.599L731.997,730.599L731.997,732.777L729.819,732.777L729.819,735.298L731.997,735.298L731.997,737.476L734.518,737.476L734.518,735.298L736.696,735.298L736.696,732.777L734.518,732.777Z" style="fill:rgb(34,197,94);"/>
        <path d="M724.729,734.038C724.729,737.444 721.964,740.209 718.557,740.209C715.151,740.209 712.386,737.444 712.386,734.038C712.386,730.631 715.151,727.866 718.557,727.866C721.964,727.866 724.729,730.631 724.729,734.038ZM719.818,732.777L719.818,730.599L717.297,730.599L717.297,732.777L715.119,732.777L715.119,735.298L717.297,735.298L717.297,737.476L719.818,737.476L719.818,735.298L721.996,735.298L721.996,732.777L719.818,732.777Z" style="fill:rgb(34,197,94);"/>
    </g>
</svg>
