<?xml version="1.0" encoding="UTF-8" standalone="no"?>
<!DOCTYPE svg PUBLIC "-//W3C//DTD SVG 1.1//EN" "http://www.w3.org/Graphics/SVG/1.1/DTD/svg11.dtd">
<svg width="100%" height="100%" viewBox="0 0 50 24" version="1.1" xmlns="http://www.w3.org/2000/svg" xmlns:xlink="http://www.w3.org/1999/xlink" xml:space="preserve" xmlns:serif="http://www.serif.com/" style="fill-rule:evenodd;clip-rule:evenodd;stroke-linejoin:round;stroke-miterlimit:2;">
    <g transform="matrix(0.884185,0,0,0.884185,-623.335,-629.092)">
        <path d="M752.682,731.956L752.682,730.773C752.682,730.453 752.847,730.155 753.117,729.984C753.388,729.813 753.728,729.793 754.017,729.93C755.499,730.636 757.898,731.779 759.536,732.559C759.861,732.714 760.068,733.042 760.068,733.402C760.068,733.762 759.861,734.09 759.536,734.244C757.898,735.025 755.499,736.167 754.017,736.874C753.728,737.011 753.388,736.991 753.117,736.82C752.847,736.649 752.682,736.351 752.682,736.031L752.682,734.848L713.833,734.848L713.833,736.031C713.833,736.351 713.669,736.649 713.398,736.82C713.127,736.991 712.787,737.011 712.498,736.874C711.016,736.167 708.617,735.025 706.979,734.244C706.654,734.09 706.447,733.762 706.447,733.402C706.447,733.042 706.654,732.714 706.979,732.559C708.617,731.779 711.016,730.636 712.498,729.93C712.787,729.793 713.127,729.813 713.398,729.984C713.669,730.155 713.833,730.453 713.833,730.773L713.833,731.956L752.682,731.956Z" style="fill:white;"/>
        <g transform="matrix(0.345486,0,0,0.345486,481.097,478.999)">
            <text x="716.411px" y="720.505px" style="font-family:'SegoeUI-Bold', 'Segoe UI', sans-serif;font-weight:700;font-size:60px;fill:white;">?</text>
        </g>
    </g>
</svg>
